<svg width="20" height="15" viewBox="0 0 20 15" fill="none" xmlns="http://www.w3.org/2000/svg">
<path d="M0.285714 15H2.28571C2.44286 15 2.57143 14.8702 2.57143 14.7115V5.98558C2.57143 5.82692 2.44286 5.69712 2.28571 5.69712H0.285714C0.128571 5.69712 0 5.82692 0 5.98558V14.7115C0 14.8702 0.128571 15 0.285714 15ZM5.71429 15H7.71429C7.87143 15 8 14.8702 8 14.7115V0.288462C8 0.129808 7.87143 0 7.71429 0H5.71429C5.55714 0 5.42857 0.129808 5.42857 0.288462V14.7115C5.42857 14.8702 5.55714 15 5.71429 15Z" fill="#262626"/>
<path d="M19 6.5V5H11L15 9.5L11 14H19V12.5" stroke="#262626" stroke-width="1.5" stroke-linecap="round" stroke-linejoin="round"/>
</svg>
